<svg xmlns="http://www.w3.org/2000/svg" width="379.249" height="281.124" viewBox="0 0 379.249 281.124"><defs><style>.a{fill:#f2f2f2;}.b{fill:#3f3d56;}.c{fill:none;stroke:#3f3d56;stroke-miterlimit:10;stroke-width:4px;}.d{fill:#57b793;}.e{opacity:0.1;}.f{fill:#656380;}.g{opacity:0.2;}.h{fill:#6c63ff;}.i{opacity:0.05;}.j{fill:#ffc0c6;}.k{fill:#605d82;}.l{fill:#535070;}</style></defs><g transform="translate(0 0)"><path class="a" d="M829.525,264.871l-2.984-1.842c-.284-.18-.563-.371-.851-.551a28.5,28.5,0,0,0,23.641-26.764,28.207,28.207,0,0,0-2.461-12.983,28.55,28.55,0,0,0-18.3-15.787l.148,11.744-6.451-12.783a.256.256,0,0,0-.08,0,28.5,28.5,0,0,0-29.8,27.14c-.024.543,0,1.079,0,1.6a34.073,34.073,0,0,1-5.632-8.313c-2.732-6.092-2.8-12.991-2.569-21.376.432-16.618,1.146-33.359,2.081-50.053a28.482,28.482,0,0,0,25.306-26.96c.04-.875.028-1.734,0-2.589a4.279,4.279,0,0,0-.032-.639c-.056-.827-.132-1.646-.26-2.453a2.337,2.337,0,0,0-.072-.4q-.176-1.027-.419-2.029c-.064-.248-.124-.5-.192-.747a21.616,21.616,0,0,0-.675-2.149c-.084-.236-.184-.463-.272-.7-.2-.519-.423-1.031-.655-1.538-.124-.268-.244-.531-.375-.8-.032-.068-.06-.136-.1-.2h0A28.478,28.478,0,0,0,775.07,99.248l.192,15.284-6.392-12.623a28.322,28.322,0,0,0-13.582,30.707h-.032c.044.2.108.4.156.6.088.375.184.747.287,1.118.136.475.288.943.443,1.41.12.348.236.7.368,1.047.192.5.4.995.631,1.486.128.288.244.579.4.863q.547,1.1,1.2,2.157c.148.244.315.475.471.719.3.471.611.939.943,1.394.2.28.424.547.639.823.312.4.631.8.963,1.162.236.268.475.531.723.8.347.368.707.723,1.078,1.075.244.236.491.471.747.7.419.371.859.727,1.3,1.075.224.176.439.359.671.527q1.011.751,2.089,1.41c.136.08.28.148.4.228.6.356,1.2.687,1.842,1,.268.132.547.248.823.371.515.232,1.035.455,1.566.659.308.116.623.224.939.332.523.18,1.055.344,1.6.491.319.088.635.176.959.252.583.14,1.178.256,1.778.356a.2.2,0,0,1,.116.024q-.591,10.562-1.051,21.136a28.482,28.482,0,0,0-39.547-12.364l5.037,13.8-10.362-9.951a28.419,28.419,0,0,0-9.188,19.678,27.893,27.893,0,0,0,.723,7.85,28.486,28.486,0,0,0,52.4,7.762c0,.715-.052,1.434-.072,2.149-.188,7.4-.423,16.6,3.264,24.823,2.5,5.573,6.519,10.1,10.494,14.153,2.584,2.641,5.265,5.193,8.013,7.666a28.5,28.5,0,0,0,10.29,8.557q6.771,5.217,14.021,9.771l2.936,1.893c2.712,1.682,5.493,3.407,8.221,5.193-.479-.048-.955-.1-1.442-.12a28.51,28.51,0,0,0-28.058,18.547l17.808,14.5L802.3,305.185a28.51,28.51,0,0,0,40.857,25.666c-.439.551-.883,1.1-1.322,1.646-.875,1.091-1.746,2.173-2.6,3.248-11.585,14.672-14.812,28.606-9.072,39.228l6.975-3.771c-5.592-10.338,2.8-23.569,8.321-30.543.835-1.055,1.69-2.117,2.553-3.2,7.4-9.188,15.791-19.622,15.579-32.409C863.292,285.8,844.561,274.186,829.525,264.871Z" transform="translate(-723.24 -98.082)"/><ellipse class="b" cx="181.957" cy="8.389" rx="181.957" ry="8.389" transform="translate(15.334 264.346)"/><path class="c" d="M946.435,700.143c-1.2-2.2.16-4.9,1.71-6.863s3.439-3.995,3.4-6.507c-.056-3.6-3.871-5.717-6.923-7.622a33.881,33.881,0,0,1-6.212-5A9.1,9.1,0,0,1,936.5,671.6a10.434,10.434,0,0,1-.571-4.546q.2-7.694.759-15.371" transform="translate(-896.143 -430.536)"/><path class="d" d="M959.552,642.959a5.616,5.616,0,0,1,2.8-4.594l1.254,2.485-.036-3a5.605,5.605,0,1,1-3.995,5.113Z" transform="translate(-924.807 -422.087)"/><path class="d" d="M936.762,733.744a5.593,5.593,0,1,0-.268-4.514l3.5,2.848-3.851-.895A5.592,5.592,0,0,0,936.762,733.744Z" transform="translate(-892.018 -474.922)"/><path class="d" d="M946.317,701.856a5.592,5.592,0,0,0,5.856-5.341,5.511,5.511,0,0,0-.483-2.553,5.617,5.617,0,0,0-3.6-3.108l.028,2.313-1.27-2.517h0a5.609,5.609,0,1,0-.523,11.205Z" transform="translate(-898.806 -453.935)"/><path class="d" d="M980.4,679.175a5.6,5.6,0,1,0-2.477-10.474l.99,2.716-2.037-1.958a5.593,5.593,0,0,0-1.814,3.871,5.465,5.465,0,0,0,.144,1.542,5.592,5.592,0,0,0,5.193,4.3Z" transform="translate(-946.496 -440.327)"/><path class="e" d="M960.344,649.037c1.294.144,2.552.547,3.851.627a4.191,4.191,0,0,0,3.547-1.242,17.777,17.777,0,0,0,1.039-1.822,3.992,3.992,0,0,1,1.41-1.33,5.593,5.593,0,1,1-10.482,3.723C959.925,649,960.137,649.017,960.344,649.037Z" transform="translate(-924.845 -426.687)"/><path class="e" d="M980.2,683.99A5.593,5.593,0,0,0,985.534,676a4.154,4.154,0,0,0-1.126,1.13,18.074,18.074,0,0,1-1.11,1.854,4.572,4.572,0,0,1-3.719,1.3c-1.354-.064-2.656-.443-3.995-.567-.184,0-.375-.032-.563-.036A5.592,5.592,0,0,0,980.2,683.99Z" transform="translate(-946.3 -445.141)"/><path class="e" d="M946.083,706.844a5.593,5.593,0,0,0,5.856-5.341,5.512,5.512,0,0,0-.483-2.553,4.6,4.6,0,0,0-1.2,1.138c-.435.615-.707,1.322-1.2,1.89a5.179,5.179,0,0,1-3.971,1.39c-1.434-.036-2.724-.371-4.107-.475a5.617,5.617,0,0,0,5.1,3.951Z" transform="translate(-898.572 -458.923)"/><path class="e" d="M935.764,739.094a5.6,5.6,0,0,0,10.223-4.594,5.81,5.81,0,0,0-1.23,1.1,22.13,22.13,0,0,1-1.5,2,6.977,6.977,0,0,1-4.642,1.63A24.021,24.021,0,0,1,935.764,739.094Z" transform="translate(-891.021 -480.272)"/><path class="f" d="M944.007,763.053s-4.422-.136-5.756-1.086-6.791-2.085-7.139-.559-6.651,7.59-1.654,7.614,11.609-.8,12.939-1.6S944.007,763.053,944.007,763.053Z" transform="translate(-885.263 -495.983)"/><path class="g" d="M929.355,772.063c4.993.04,11.609-.8,12.939-1.6,1.011-.615,1.418-2.832,1.55-3.855h.148s-.28,3.567-1.6,4.394-7.942,1.63-12.939,1.6c-1.442,0-1.941-.527-1.913-1.286C927.729,771.767,928.28,772.055,929.355,772.063Z" transform="translate(-885.247 -499.555)"/><path class="c" d="M267.848,564.536c2.9-5.369-.4-11.944-4.17-16.73s-8.389-9.763-8.289-15.863c.144-8.764,9.443-13.937,16.874-18.583a82.411,82.411,0,0,0,15.152-12.18,22.129,22.129,0,0,0,4.658-6.236c1.534-3.427,1.494-7.322,1.394-11.077q-.479-18.775-1.854-37.478" transform="translate(18.207 -307.253)"/><path class="d" d="M252.047,425.11a13.666,13.666,0,0,0-6.823-11.185l-3.06,6.052.092-7.326a13.67,13.67,0,1,0,9.791,12.471Z" transform="translate(71.902 -286.656)"/><path class="d" d="M307.819,646.338a13.662,13.662,0,0,1-25.8-5.593,13.487,13.487,0,0,1,.891-5.545,13.67,13.67,0,0,1,25.566.148l-8.537,6.943,9.391-2.185A13.515,13.515,0,0,1,307.819,646.338Z" transform="translate(-8.245 -415.383)"/><path class="d" d="M284.388,568.745a13.67,13.67,0,0,1-4.334-26.812l-.072,5.628,3.076-6.124h.036a13.671,13.671,0,0,1,1.274,27.312Z" transform="translate(8.439 -364.322)"/><path class="d" d="M201.294,513.474a13.67,13.67,0,1,1,6.04-25.566l-2.4,6.619,4.949-4.782a13.606,13.606,0,0,1,4.434,9.436,13.33,13.33,0,0,1-.348,3.763A13.666,13.666,0,0,1,201.294,513.474Z" transform="translate(124.712 -331.13)"/><path class="e" d="M250.909,439.988c-3.156.348-6.224,1.326-9.387,1.522s-6.643-.559-8.644-3.02c-1.079-1.326-1.618-3-2.529-4.45a9.7,9.7,0,0,0-3.443-3.24,13.67,13.67,0,1,0,25.566,9.072C251.939,439.9,251.42,439.932,250.909,439.988Z" transform="translate(71.202 -297.89)"/><path class="e" d="M202.218,525.244a13.678,13.678,0,0,1-13-19.494,10.111,10.111,0,0,1,2.748,2.748c.975,1.47,1.562,3.168,2.708,4.518,2.129,2.5,5.764,3.32,9.064,3.172s6.483-1.091,9.767-1.39c.455-.04.919-.072,1.378-.084A13.666,13.666,0,0,1,202.218,525.244Z" transform="translate(123.788 -342.9)"/><path class="e" d="M285.867,580.892a13.666,13.666,0,0,1-13.111-19.242,11.054,11.054,0,0,1,2.888,2.8c1.063,1.5,1.726,3.224,2.968,4.606,2.3,2.569,6.18,3.475,9.675,3.391,3.384-.072,6.643-.9,10.007-1.162A13.678,13.678,0,0,1,285.867,580.892Z" transform="translate(6.959 -376.47)"/><path class="e" d="M311.6,659.5a13.662,13.662,0,0,1-25.8-5.592,13.486,13.486,0,0,1,.891-5.545,13.68,13.68,0,0,1,3,2.672c1.3,1.6,2.157,3.379,3.659,4.857,2.8,2.74,7.306,3.875,11.321,3.995a58.623,58.623,0,0,0,6.935-.387Z" transform="translate(-12.025 -428.542)"/><path class="h" d="M180.22,570.267l52.73,10.786,1.2-.12,46.338-4.674V517.537l-56.724-9.587-41.145,4.793-.012.26,0,.128Z" transform="translate(11.238 -305.002)"/><path class="e" d="M296.22,577.864l52.73,10.786,1.2-.12v-60.2L298.6,520.6Z" transform="translate(-104.762 -312.598)"/><path class="i" d="M180.22,513.131l.016.012,51.531,7.59,46.338-3.2-56.724-9.587-41.145,4.793-.012.26Z" transform="translate(13.618 -305.002)"/><path class="b" d="M325.22,576.267l52.73,10.786,1.2-.12,46.338-4.674V523.537l-56.724-9.587-41.145,4.794-.012.26,0,.128Z" transform="translate(-191.685 -308.605)"/><path class="e" d="M441.22,583.864l52.73,10.786,1.2-.12v-60.2L443.6,526.6Z" transform="translate(-307.685 -316.202)"/><path class="i" d="M325.22,519.131l.016.012,51.531,7.59,46.338-3.2-56.724-9.587-41.145,4.794-.012.26Z" transform="translate(-189.304 -308.605)"/><path class="b" d="M234.22,432.267l52.73,10.786,1.2-.12,46.338-4.674V379.537l-56.724-9.587-41.145,4.794-.012.26,0,.128Z" transform="translate(-64.334 -222.128)"/><path class="e" d="M350.22,439.864l52.73,10.786,1.2-.12v-60.2L352.6,382.6Z" transform="translate(-180.334 -229.725)"/><path class="i" d="M234.22,375.131l.016.012,51.531,7.59,46.338-3.2-56.724-9.587-41.145,4.794-.012.26Z" transform="translate(-61.953 -222.128)"/><path class="b" d="M429.22,483.215l27.519,5.632.627-.064,24.184-2.441V455.7l-29.6-5.005-21.475,2.5-.008.136v.064Z" transform="translate(-289.294 -270.615)"/><path class="e" d="M489.76,487.184l27.519,5.632.627-.064V461.335L491,457.3Z" transform="translate(-349.834 -274.585)"/><path class="i" d="M429.22,453.394l.008.008,26.9,3.963,24.184-1.67-29.6-5.005-21.475,2.5-.008.136Z" transform="translate(-288.051 -270.615)"/><path class="b" d="M244.22,334.215l27.519,5.628.627-.06,24.184-2.441V306.7l-29.6-5.005-21.475,2.5-.008.136v.064Z" transform="translate(-30.392 -181.136)"/><path class="e" d="M304.76,338.184l27.519,5.628.627-.06V312.335L306,308.3Z" transform="translate(-90.932 -185.105)"/><path class="i" d="M244.22,304.394l.008.008,26.9,3.963,24.184-1.67-29.6-5.005-21.475,2.5-.008.136Z" transform="translate(-29.15 -181.136)"/><path class="h" d="M365.22,331.215l27.519,5.629.627-.06,24.184-2.441V303.7l-29.6-5.005-21.475,2.5-.008.136v.064Z" transform="translate(-199.728 -179.334)"/><path class="e" d="M425.76,335.184l27.519,5.629.627-.06V309.335L427,305.3Z" transform="translate(-260.268 -183.304)"/><path class="i" d="M365.22,301.394l.008.008,26.9,3.963,24.184-1.67-29.6-5.005-21.475,2.5-.008.136Z" transform="translate(-198.485 -179.334)"/><path class="b" d="M401.22,254.215l27.519,5.628.627-.06,24.184-2.441V226.7l-29.6-5.005-21.475,2.5-.008.136v.064Z" transform="translate(-250.109 -133.093)"/><path class="e" d="M461.76,258.184l27.519,5.628.627-.06V232.335L463,228.3Z" transform="translate(-310.648 -137.063)"/><path class="i" d="M401.22,224.394l.008.008,26.9,3.963,24.184-1.67-29.6-5.005-21.475,2.5-.008.136Z" transform="translate(-248.866 -133.093)"/><path class="j" d="M721.606,232.23c.292,2.6,2.273,4.69,3.008,7.19,1.1,3.775-.8,7.83-3.419,10.786a23.876,23.876,0,0,1-16.626,7.886,7.155,7.155,0,0,1-2.748-.3,5.969,5.969,0,0,1-2.089-1.43,13.358,13.358,0,0,1-3.443-7.474,39.965,39.965,0,0,1-.1-8.353,4.725,4.725,0,0,1,.312-1.686,4.283,4.283,0,0,1,1.083-1.33,25.167,25.167,0,0,1,4.654-3.383,5.225,5.225,0,0,0,1.949-1.49,4.878,4.878,0,0,0,.6-1.786l.515-2.621a5.137,5.137,0,0,1,.755-2.125c.907-1.222,2.645-1.39,4.167-1.45l5.593-.22c1.738-.068,4.023-.567,5.72-.224,1.6.316,1.059,1.778.771,3.1A22.437,22.437,0,0,0,721.606,232.23Z" transform="translate(-589.238 -173.761)"/><path class="e" d="M721.606,232.23c.292,2.6,2.273,4.69,3.008,7.19,1.1,3.775-.8,7.83-3.419,10.786a23.876,23.876,0,0,1-16.626,7.886,7.155,7.155,0,0,1-2.748-.3,5.969,5.969,0,0,1-2.089-1.43,13.358,13.358,0,0,1-3.443-7.474,39.965,39.965,0,0,1-.1-8.353,4.725,4.725,0,0,1,.312-1.686,4.283,4.283,0,0,1,1.083-1.33,25.167,25.167,0,0,1,4.654-3.383,5.225,5.225,0,0,0,1.949-1.49,4.878,4.878,0,0,0,.6-1.786l.515-2.621a5.137,5.137,0,0,1,.755-2.125c.907-1.222,2.645-1.39,4.167-1.45l5.593-.22c1.738-.068,4.023-.567,5.72-.224,1.6.316,1.059,1.778.771,3.1A22.437,22.437,0,0,0,721.606,232.23Z" transform="translate(-589.238 -173.761)"/><path class="k" d="M720.948,517.871l2.373,26.013c.619,6.823,1.25,13.674,2.465,20.409.4,2.321.911,4.63,1.494,6.919,1.622,6.356,3.975,12.567,4.734,19.083.024.188.044.4.064.571a17.1,17.1,0,0,0,.8,4.234c.4.995.963,1.9,1.374,2.884a18.905,18.905,0,0,1,1.027,6.268,27.022,27.022,0,0,1,9.3-3.2c1.6-.236,3.335-.4,4.394-1.6,1.2-1.3,1.059-3.3.859-5.045q-.943-8.149-1.877-16.29a42.447,42.447,0,0,0-1.2-6.919c-.216-.755-.475-1.5-.739-2.241-.364-1.023-.731-2.045-1.007-3.1a37.282,37.282,0,0,1-.791-5.125c-.643-5.465-1.418-10.917-2.1-16.378l-.036-.288a167.5,167.5,0,0,1-1.57-24.931c.032-1.234.084-2.469.164-3.707.112-1.794.276-2.744-1.2-3.867a27.95,27.95,0,0,0-5.681-2.916c-1.01-.439-12.14-4.394-12.383-3.523a21.686,21.686,0,0,0-.8,5.68A63.2,63.2,0,0,0,720.948,517.871Z" transform="translate(-624.096 -342.454)"/><path class="e" d="M730.4,623.027c.4,2.321.911,4.63,1.494,6.919,1.622,6.355,3.975,12.567,4.734,19.083.024.188.044.4.064.571,4.961-7.087,9.14-14.708,13.981-21.871-.364-1.023-.731-2.045-1.007-3.1a37.274,37.274,0,0,1-.831-5.157c-.643-5.465-1.418-10.917-2.1-16.378l-.036-.288a16.958,16.958,0,0,1-1.2,3.359c-3.252,6.607-10.977,9.947-14.756,16.27Q730.56,622.735,730.4,623.027Z" transform="translate(-628.711 -401.188)"/><path class="k" d="M734.382,459.637a122.841,122.841,0,0,1-1.858,15.783l-1.746,10.786c-.955,5.912-1.953,11.94-4.75,17.233-2.093,3.963-5.105,7.342-7.833,10.893-6.7,8.732-11.74,18.627-18.1,27.615-1.849,2.613-4.49,5.441-7.642,4.893-2.069-.355-3.571-2.081-5.193-3.407-1.917-1.566-4.226-2.712-5.736-4.678s-1.806-5.225.24-6.623a11.039,11.039,0,0,1,2.341-.959c3.168-1.2,5.221-4.3,6.523-7.43s2.1-6.491,3.835-9.4c3.779-6.324,11.509-9.663,14.76-16.274,1.822-3.7,2-7.989,2.133-12.092l.356-10.51a7.652,7.652,0,0,0-.4-3.4c-1.242-2.8-5-3.06-8.041-3.415a27.466,27.466,0,0,1-9.855-3.108,10.221,10.221,0,0,1-4.394-3.911,12.563,12.563,0,0,1-1.07-5.293L686.9,437.291a12.012,12.012,0,0,1,.4-4.869c1.45-3.859,6.323-5.121,10.442-4.937,7.662.344,14.732,3.639,21.971,5.868a56.127,56.127,0,0,0,5.445,1.418c1.6.323,3.6.192,5.129.711,2.748.927,2.68,6.943,3.068,9.435A79.215,79.215,0,0,1,734.382,459.637Z" transform="translate(-592.434 -295.889)"/><path class="l" d="M799.6,709.806a4.883,4.883,0,0,0-1.07,2.625,89.531,89.531,0,0,0-1.518,15.863,2.629,2.629,0,0,1-.284,1.438,1.836,1.836,0,0,1-.747.6c-1.953.931-4.218-.368-5.848-1.794-3.016-2.641-5.569-6.188-5.74-10.194a23.431,23.431,0,0,0-.108-3.092,12.869,12.869,0,0,0-1.921-4.142,35.175,35.175,0,0,1-3.2-7.118c-.3-.935-.5-2.109.24-2.76a2.568,2.568,0,0,1,.867-.451L789.1,697.5c.767-.284,2.668,4.6,2.968,5.137a4.043,4.043,0,0,0,2.956,2.349c1.482.3,3.312-.136,4.726.619C802.149,706.882,800.955,708.443,799.6,709.806Z" transform="translate(-698.538 -458.046)"/><path class="l" d="M728.538,733.582a2.69,2.69,0,0,1,.671-.851,3.006,3.006,0,0,1,1.354-.459c1.678-.288,3.667-.475,4.829.775,1.087,1.17.9,3.076,1.806,4.394a13.668,13.668,0,0,1,.927,1.2,4.5,4.5,0,0,1,.4,2.149c.048,2.033.1,4.075-.048,6.1a8.517,8.517,0,0,1-1.466,4.821c-1.71,2.141-4.794,2.449-7.526,2.585l-2.217.116a4.392,4.392,0,0,1-1.813-.168,2.976,2.976,0,0,1-1.566-1.722c-1.155-2.868.671-5.956,1.8-8.832C726.984,740.381,726.753,736.71,728.538,733.582Z" transform="translate(-598.329 -478.807)"/><path class="b" d="M705.946,184.156a1.808,1.808,0,0,0-.124-.855c-.323-.571-1.17-.4-1.81-.256-2.568.647-5.277.06-7.925.212s-5.629,1.474-6.16,4.071a19.257,19.257,0,0,1-4.885-5.017,6.02,6.02,0,0,1-1.274-3.675c.144-1.9,1.738-3.324,3.2-4.53l4.394-3.6a6.677,6.677,0,0,1,1.974-1.254,9.817,9.817,0,0,1,3.2-.18c3.2,0,6.623-1.458,9.471,0a10.11,10.11,0,0,1,2.952,2.684l3.927,4.65a2.48,2.48,0,0,1,.631,1.067,4.7,4.7,0,0,1-.284,1.7c-.184,1.039.264,2.149-.08,3.148-.571,1.654-2.584,1.889-3.815,2.84-.455.352-1.174,1.554-1.722,1.538C706.645,186.68,705.974,184.923,705.946,184.156Z" transform="translate(-572.938 -140.327)"/><ellipse class="j" cx="12.583" cy="12.583" rx="12.583" ry="12.583" transform="translate(113.761 32.376)"/><path class="b" d="M683.029,259.2a6.1,6.1,0,0,1,5.916-4.083,1.777,1.777,0,0,0,1.094-.14,1.515,1.515,0,0,0,.452-.559,22.264,22.264,0,0,0,1.833-4.338c.2-.667.475-1.454,1.151-1.626a1.544,1.544,0,0,1,1.462.639,13.99,13.99,0,0,0,1.047,1.314c1.6,1.414,4.394.124,6.068,1.422.276.212.5.483.8.679a3.634,3.634,0,0,0,.923.4,88.436,88.436,0,0,1,9.539,3.727c-1.118,6.727-2.261,13.582-4.881,19.873-1.246,3-2.656,5.932-3.655,9.02-2.213,6.843-2.309,14.165-2.337,21.359,0,4.921,0,9.947,1.6,14.6a14.13,14.13,0,0,1,.9,3.2,3.324,3.324,0,0,1-1.126,2.988,3.8,3.8,0,0,1-1.738.611c-2.76.4-5.541-.328-8.257-.959a222.25,222.25,0,0,0-22.123-3.6l-12.423-1.6a7.265,7.265,0,0,1-2.573-.667c-2.273-1.242-2.489-4.662-1.075-6.835.675-1.043,1.63-1.9,2.2-3s.615-2.652-.364-3.415c-2-1.558-1.4-4.446-1.494-6.971q-.4-10.594.108-21.172a41.421,41.421,0,0,0,.072-4.394,38.758,38.758,0,0,0-1.37-7.334L651,253.488a7.748,7.748,0,0,1,4.662-3c1.786-.447,3.651-.579,5.413-1.126,3.6-1.119,6.823-3.955,10.59-3.691a1.936,1.936,0,0,1,.823.2c.847.483.715,1.706.767,2.68.12,2.161,1.71,3.963,3.459,5.229s3.755,2.185,5.365,3.627a2.4,2.4,0,0,1,.951,1.79Z" transform="translate(-559.633 -186.706)"/><path class="j" d="M599.77,307.81a14.774,14.774,0,0,0,2.644,1.362,8.792,8.792,0,0,1,2.537,1.23,4.017,4.017,0,0,1,.883,1.091,4.846,4.846,0,0,1-4.466,7.218,9.738,9.738,0,0,1-3.3-.987l-8.876-3.863c-1.5-.651-3.124-1.41-3.835-2.888a.7.7,0,0,1-.088-.459.754.754,0,0,1,.367-.4,19.882,19.882,0,0,0,5.165-4.874c.364-.5.8-1.662,1.326-1.961C594,302.238,598.264,306.836,599.77,307.81Z" transform="translate(-426.516 -221.219)"/><path class="j" d="M796.668,307l-3.272,3.739c-.7.8-1.406,1.6-2.045,2.461a28.638,28.638,0,0,0-3.747,7.059,12.34,12.34,0,0,0-1.054,5.836,14.39,14.39,0,0,0,.819,2.968,36.718,36.718,0,0,0,2.225,5.353,30.5,30.5,0,0,0,2.489,3.743,87.539,87.539,0,0,0,8.3,9.487c1.119,1.106,1.6,2.9,2.073,4.394.9,2.76,3.036,4.914,5.1,6.951a14.061,14.061,0,0,0,2.193,1.885,7.111,7.111,0,0,0,3.995,1.134,4.393,4.393,0,0,0,1.794-.371,4.639,4.639,0,0,0,2.281-3.863,8.269,8.269,0,0,0-.687-4.138c-1.877-4.158-6.7-5.96-10.106-9a32.992,32.992,0,0,1-5.037-6.224,21.6,21.6,0,0,1-2.545-4.462c-.759-2.033-.463-4.438-1.13-6.5-.28-.875-.8-1.662-1.083-2.529a3,3,0,0,1,.152-2.64,3.814,3.814,0,0,1,1.482-1.087c2.177-1.1,4.614-2.525,5.029-4.933a5.281,5.281,0,0,0-.975-3.767,15.584,15.584,0,0,0-2.744-2.876C799.225,308.77,797.623,307.823,796.668,307Z" transform="translate(-718.296 -223.544)"/><path class="j" d="M560.209,322.938A6.055,6.055,0,0,1,562.674,320a4.538,4.538,0,0,1,3.6,0,13.627,13.627,0,0,1,3.148,1.9l2.82,2.081a6.94,6.94,0,0,1,1.674,1.546,6.435,6.435,0,0,1,.871,2.4,17.407,17.407,0,0,1,.443,5.916c-.447,3.2-2.365,5.96-4.474,8.389-1.318,1.51-2.948,3.036-4.953,3.1a2.273,2.273,0,0,1-2.189-1.1,2.73,2.73,0,0,1-.2-.983c-.216-3.547,1.055-7.011,2.533-10.242a6.339,6.339,0,0,0,.8-2.752.746.746,0,0,0-.12-.463.776.776,0,0,0-.479-.236c-2.025-.4-5.517,1.174-6.935-1.075C558.292,327,559.554,324.26,560.209,322.938Z" transform="translate(-384.854 -231.129)"/><path class="b" d="M704.31,174.246a1.861,1.861,0,0,0-.128-.855c-.323-.575-1.17-.4-1.81-.256-2.569.647-5.277.06-7.925.212s-5.625,1.474-6.16,4.071A19.384,19.384,0,0,1,683.4,172.4a6.039,6.039,0,0,1-1.274-3.679c.144-1.9,1.742-3.324,3.2-4.526l4.394-3.6a6.655,6.655,0,0,1,1.969-1.254,9.826,9.826,0,0,1,3.2-.18c3.2,0,6.623-1.458,9.471,0a10.109,10.109,0,0,1,2.952,2.684l3.931,4.65a2.488,2.488,0,0,1,.627,1.067,4.7,4.7,0,0,1-.284,1.7c-.184,1.039.264,2.149-.08,3.144-.571,1.658-2.584,1.893-3.815,2.844-.455.352-1.174,1.554-1.722,1.538C705.017,176.77,704.346,175.013,704.31,174.246Z" transform="translate(-570.639 -134.376)"/><path class="b" d="M631.232,277.923a5.215,5.215,0,0,1,1.318,1.226c.459.7.555,1.6.951,2.317.847,1.574,2.832,2.137,4.067,3.427a1.274,1.274,0,0,1,.4.671,1.482,1.482,0,0,1-.332.967l-5.968,9.38c-2,.176-3.891-1.071-5.88-.9a5.93,5.93,0,0,1-2.213.1,6.434,6.434,0,0,1-1.418-.867c-1.2-.751-2.764-.839-3.759-1.826a5.028,5.028,0,0,1-1.067-3.783,14.932,14.932,0,0,1,.355-3.475c.879-3.6,3.631-6.368,5.357-9.555.843-1.554,1.3-2.461,3.076-1.394S629.551,276.693,631.232,277.923Z" transform="translate(-470.837 -203.571)"/><path class="b" d="M801.622,267.575a14.006,14.006,0,0,0-3,2.628c-.907,1.17-1.422,2.609-2.3,3.807a41.6,41.6,0,0,1-2.956,3.132,23.869,23.869,0,0,0-3.411,5.557,83.337,83.337,0,0,0,7.718,8.708,2.474,2.474,0,0,0,1.174.767,1.882,1.882,0,0,0,1.654-.675c.431-.447.735-1.007,1.146-1.474a5.892,5.892,0,0,1,3.647-1.762,25.059,25.059,0,0,1,4.134-.06,1.6,1.6,0,0,0,.883-.148,1.459,1.459,0,0,0,.479-.551c1.6-2.748,1.1-6.2.527-9.34l-1.306-7.19a16.159,16.159,0,0,0-1.091-3.995c-.5-1.059-1.6-2.856-2.964-2.537S802.776,266.745,801.622,267.575Z" transform="translate(-713.694 -197.965)"/><path class="h" d="M274.22,257.215l27.519,5.629.627-.06,24.184-2.441V229.7l-29.6-5.005-21.475,2.5-.008.136v.064Z" transform="translate(-72.376 -134.895)"/><path class="e" d="M334.76,261.184l27.519,5.628.627-.06V235.335L336,231.3Z" transform="translate(-132.916 -138.864)"/><path class="i" d="M274.22,227.394l.008.008,26.9,3.963,24.184-1.67-29.6-5.005-21.475,2.5-.008.136Z" transform="translate(-71.134 -134.895)"/><path class="b" d="M310.22,181.215l27.519,5.632.627-.064,24.184-2.441V153.7l-29.6-5.005-21.475,2.5-.008.136v.064Z" transform="translate(-122.757 -89.254)"/><path class="e" d="M370.76,185.184l27.519,5.632.627-.064V159.335L372,155.3Z" transform="translate(-183.297 -93.224)"/><path class="i" d="M310.22,151.394l.008.008,26.9,3.963,24.184-1.67-29.6-5.005-21.475,2.5-.008.136Z" transform="translate(-121.515 -89.254)"/></g></svg>